<?xml version="1.0" encoding="UTF-8" standalone="no"?>
<svg id="svg2" xmlns:rdf="http://www.w3.org/1999/02/22-rdf-syntax-ns#" xmlns="http://www.w3.org/2000/svg" xml:space="preserve" height="311.35" viewBox="0 0 311.35001 311.34875" width="311.35" version="1.1" xmlns:cc="http://creativecommons.org/ns#" xmlns:xlink="http://www.w3.org/1999/xlink" xmlns:dc="http://purl.org/dc/elements/1.1/"><metadata id="metadata8"><rdf:RDF><cc:Work rdf:about=""><dc:format>image/svg+xml</dc:format><dc:type rdf:resource="http://purl.org/dc/dcmitype/StillImage"/><dc:title/></cc:Work></rdf:RDF></metadata><defs id="defs6"><clipPath id="clipPath28" clipPathUnits="userSpaceOnUse"><path id="path30" d="m0 960h960v-960h-960v960z"/></clipPath></defs><g id="g10" transform="matrix(1.25 0 0 -1.25 -380.86 923.4)"><g id="g24" transform="translate(-54.651 .35955)"><g id="g26" clip-path="url(#clipPath28)"><g id="g32" transform="translate(483.88 728.18)"><path id="path34" d="m0 0c-63.161 0-114.36-51.202-114.36-114.36 0-63.162 51.202-114.36 114.36-114.36 63.161 0 114.36 51.202 114.36 114.36s-51.199 114.36-114.36 114.36m124.54-114.36c0-68.782-55.759-124.54-124.54-124.54s-124.54 55.758-124.54 124.54c0 68.781 55.759 124.54 124.54 124.54s124.54-55.758 124.54-124.54" fill="#f9a66e"/></g><g id="g36" transform="translate(461.74 607.41)"><path id="path38" d="m0 0c-2.585-3.692-6.87-6.106-11.718-6.106-7.896 0-14.296 6.401-14.296 14.296s6.4 14.295 14.296 14.295c4.757 0 8.971-2.323 11.57-5.898l-0.008-0.001h15.507v57.666h86.257v-15.506h-67.358v-43.129h52.821v8.238l20.352-15.022-20.352-15.992v7.754l-52.821-0.485v-46.521h68.328v-15.991h-86.742v4.119s-10.419-5.625-29.56-5.602c-22.463 0.027-57.425 10.932-57.424 70.295 0 62.27 32.225 68.085 56.212 69.538 10.632 0.647 23.974-5.087 23.974-5.087v-20.837s-6.475 11.63-24.473 12.324c-12.348 0.476-37.816-6.265-38.04-53.514-0.242-51.125 24.484-58.077 41.743-57.424 25.615 0.969 27.069 8.965 27.069 8.965v39.736l-15.351-0.11z" fill="#f9a66e"/></g></g></g></g></svg>
