<svg id="Layer_1" data-name="Layer 1" xmlns="http://www.w3.org/2000/svg" viewBox="0 0 1200 427.91"><defs><style>.cls-1{fill:#656565;}.cls-2{fill:#00609b;}</style></defs><title>Logotipo_ProLegal</title><path class="cls-1" d="M77.93,389.3c-15.64,0-25.85-10.64-25.85-26.91,0-15.32,11-26.91,25.85-26.91a26.66,26.66,0,0,1,15.43,5.21l6.27-10.21c-6.7-4.15-13.72-6.6-21.7-6.6-22,0-39.78,16.6-39.78,38.51,0,23.08,17.12,38.51,39.46,38.51a40.54,40.54,0,0,0,23.72-7.77L94,383.56A26,26,0,0,1,77.93,389.3Z"/><path class="cls-1" d="M148,323.88a38.51,38.51,0,1,0,38.72,38.51A38.19,38.19,0,0,0,148,323.88Zm0,65.42c-14.26,0-24.68-11.81-24.68-26.91s10.42-26.91,24.68-26.91,24.78,11.8,24.78,26.91S162.38,389.3,148,389.3Z"/><path class="cls-1" d="M244.27,347.07c0-15.85-14.68-21.91-26.49-21.91h-23v74.46H208V369.2h4.68L234,399.62h16.38l-23.08-31.7C236,365.47,244.27,359.09,244.27,347.07ZM208,357.92V336.43h9.46c7.66,0,12.88,4.37,12.88,11,0,7.45-6.39,10.53-15,10.53Z"/><path class="cls-1" d="M281.49,325.16H258.4v74.46h13.19V370.79h9.9c12.55,0,27.23-6.06,27.23-22.87S293.93,325.16,281.49,325.16ZM279,359.52h-7.45V336.43h9.58c8.08,0,13.61,4.47,13.61,11.81C294.78,356.54,288.08,359.52,279,359.52Z"/><path class="cls-1" d="M355.4,323.88a38.51,38.51,0,1,0,38.72,38.51A38.19,38.19,0,0,0,355.4,323.88Zm0,65.42c-14.25,0-24.68-11.81-24.68-26.91s10.43-26.91,24.68-26.91,24.79,11.8,24.79,26.91S369.76,389.3,355.4,389.3Z"/><path class="cls-1" d="M451.65,347.07c0-15.85-14.67-21.91-26.48-21.91h-23v74.46h13.19V369.2h4.68l21.28,30.42h16.38l-23.09-31.7C443.36,365.47,451.65,359.09,451.65,347.07Zm-36.27,10.85V336.43h9.47c7.66,0,12.87,4.37,12.87,11,0,7.45-6.38,10.53-15,10.53Z"/><path class="cls-1" d="M495.47,325.16l-29.68,74.46h14.46l5.32-14.68h28.72l5.22,14.68h15.1l-28.19-74.46Zm-5.86,48.72L500,345.26h.11l10.21,28.62Z"/><polygon class="cls-1" points="542.68 336.43 560.77 336.43 560.77 399.62 573.96 399.62 573.96 336.43 592.04 336.43 592.04 325.16 542.68 325.16 542.68 336.43"/><rect class="cls-1" x="600.11" y="325.16" width="13.19" height="74.46"/><polygon class="cls-1" points="655.94 379.51 655.84 379.51 636.48 325.16 621.37 325.16 649.56 399.62 660.52 399.62 690.19 325.16 675.73 325.16 655.94 379.51"/><path class="cls-1" d="M736.88,323.88a38.51,38.51,0,1,0,38.72,38.51A38.2,38.2,0,0,0,736.88,323.88Zm0,65.42c-14.26,0-24.68-11.81-24.68-26.91s10.42-26.91,24.68-26.91,24.78,11.8,24.78,26.91S751.24,389.3,736.88,389.3Z"/><path class="cls-2" d="M265.88,199.35c7.14-39.26,52.09-38,52.09-38V130.7c-40.7.22-52.09,21.69-52.09,21.69V130.7h-37V285h37Z"/><polygon class="cls-2" points="523.83 27.1 486.8 27.1 486.8 285.04 592.3 285.04 592.3 254.19 523.83 254.19 523.83 27.1"/><path class="cls-2" d="M1157.47,254.66c-15.22,0-14.91-14.79-14.91-14.79V27.17h-37v212.7s-2.75,45.63,52,45.63h3.79V254.66Z"/><path class="cls-2" d="M1045.21,143.5a76.46,76.46,0,0,0-45.3-14.82c-42.86,0-77.61,35.22-77.61,78.67S957.05,286,999.91,286a76.51,76.51,0,0,0,45.3-14.81V286h37V131.31h-37Zm0,80.22c-6.14,18.77-22.48,32.23-41.74,32.23-24.5,0-44.37-21.76-44.37-48.6s19.87-48.59,44.37-48.59c19.26,0,35.6,13.45,41.74,32.22Z"/><path class="cls-2" d="M129.67,27.41H38.15V285h37V206h54.49a89.32,89.32,0,0,0,0-178.63Zm-6.19,147.78H75.18V58.26h48.3a58.47,58.47,0,1,1,0,116.93Z"/><path class="cls-2" d="M667.93,289.89a80.93,80.93,0,0,0,78.55-61.52H709.14c-6.7,17.59-22.5,29.94-40.91,29.94-22.44,0-44.71-18.8-44.71-52.31H748.76a80.9,80.9,0,1,0-80.83,83.89Zm.3-129.2c12.3,0,23.39,5.55,31.41,14.45H636.73A42.33,42.33,0,0,1,668.23,160.69Z"/><path class="cls-2" d="M890.4,143.84l-5.33,6.39a76.77,76.77,0,0,0-47.71-16.48c-42,0-76.08,33.33-76.08,74.45,0,32,20.66,59.3,49.64,69.82h0l-6.59,11.87L826,308.62s23.86-17,36.16,8.85c7.13,22.38-5.17,34.44-14.27,37.63-11.56,6.15-24.59-8.11-24.59-8.11l-28,16.72s18.12,17.53,33.45,20.41,35.9,2.11,55.83-16.72c17.75-17.07,15.63-40,13.84-50-9.17-33.43-35-39.17-35-39.17h0c29.21-10.4,50.07-37.81,50.07-70a72.9,72.9,0,0,0-6.18-29.43l8.24-11.08Zm-53,107.42c-22,0-39.74-19.66-39.74-43.91s17.79-43.9,39.74-43.9,39.73,19.65,39.73,43.9S859.3,251.26,837.36,251.26Z"/><path class="cls-1" d="M392.66,132.94c-22.18,20.23-44.75,39.31-66.54,59.18,25.78,18.65,44.78,43.94,62.84,68.63,1.94-.86,4.57-1.56,7.43-2.82-16.41-24.8-37.5-45.69-58-66.42,20.25-19.17,38.86-37.33,58.89-56.31l10,8.62c-17.85,16.62-35.66,32.18-53.12,48.45,19.2,18,32.8,41.71,45.75,64.17,2.46-1.36,4.85-3.48,7.13-4.75-10.23-22.09-25.33-40.47-39.9-59.52,16.23-14.39,31.17-28,47.52-42.3,14.92,16,23.13,38.82,31.76,57.5,6.68-21.79,6.56-47.61-1.41-68.78-2-5.34-5.15-9.29-10.23-11.69a100.24,100.24,0,0,0-10.39-4.5c-13.79-4.68-26.35-5.35-40.7-3.37-55.41,7.66-68,61.21-68.28,63.88,21.26-19.4,42.8-39.89,63.32-58.62Z"/><path class="cls-2" d="M456.29,143.82c7,21.3,5.46,38.19,2,54-12,55.5-62.52,85.69-119.72,73a87.13,87.13,0,0,1-35.19-19.72,107.39,107.39,0,0,1-20.22-25.41c-4.29-7.29-9.9-16.78-10.68-17.81,1.45,4.27,6.72,15.26,11,23.86,6.59,13.38,15.79,25.43,27.61,34.55,19.27,14.87,42.08,20.86,66.35,20.33,32.12.56,59.45-19.7,59.45-19.7-10.45,8.95-19.35,20.07-56.63,26.92,33.94,4.46,69.79-7.59,89.37-40.61C493.93,214.66,480.48,171.15,456.29,143.82Z"/><path class="cls-1" d="M399.8,220.05a145.86,145.86,0,0,1,12.33,29.56c12.27-10.29,26.57-22.61,32.2-38.31-8.77-16-16.67-32.16-29.1-46.18-11,9.7-23.44,19.33-33.4,28.49C387.81,202.79,394.9,211.35,399.8,220.05Z"/><path class="cls-2" d="M340,259.77a11.57,11.57,0,0,0,6.56,3.33c9.3.78,18.64,1.18,28,1.36,2.74.06,5.5-1.08,9.54-2-8.26-8.94-15.41-16.9-22.8-24.63-11.84-12.4-24.13-24.33-38.06-34.43-2.49-1.81-5.22-3.28-9-5.62,1.49,18,4.5,34,13.62,48.17C331.17,251.09,335.71,255.44,340,259.77Z"/></svg>